<?xml version="1.0" encoding="UTF-8" standalone="no"?><!DOCTYPE svg PUBLIC "-//W3C//DTD SVG 1.1//EN" "http://www.w3.org/Graphics/SVG/1.1/DTD/svg11.dtd"><svg width="100%" height="100%" viewBox="0 0 109 113" version="1.1" xmlns="http://www.w3.org/2000/svg" xmlns:xlink="http://www.w3.org/1999/xlink" xml:space="preserve" xmlns:serif="http://www.serif.com/" style="fill-rule:evenodd;clip-rule:evenodd;stroke-linecap:round;stroke-linejoin:round;stroke-miterlimit:1.5;"><g><circle cx="45.429" cy="43.975" r="28.765" style="fill:#fff;stroke:#000;stroke-width:2px;"/><circle cx="79.133" cy="51.693" r="28.765" style="fill:#fff;stroke:#000;stroke-width:2px;"/><circle cx="58.117" cy="81.363" r="28.765" style="fill:#fff;stroke:#000;stroke-width:2px;"/><circle cx="29.765" cy="68.518" r="28.765" style="fill:#fff;stroke:#000;stroke-width:2px;"/><path d="M96.181,24.921l-7.019,-8.349l-9.388,7.893l7.019,8.349l9.388,-7.893Z" style="fill:#fff;fill-opacity:0;"/><clipPath id="_clip1"><path d="M96.181,24.921l-7.019,-8.349l-9.388,7.893l7.019,8.349l9.388,-7.893Z"/></clipPath><g clip-path="url(#_clip1)"><circle cx="79.373" cy="51.693" r="28.765" style="fill:#fff;stroke:#000;stroke-width:2px;"/></g><path d="M46.256,107.75c-12.924,6.537 -28.56,-2.832 -31.353,-18.303c-2.035,-11.27 -0.064,-26.205 5.624,-39.517c8.952,-20.951 25.603,-37.812 40.304,-41.496c10.507,-2.633 23.819,0.491 26.338,15.384" style="fill:none;stroke:#5f5f5f;stroke-width:3px;"/><circle cx="66.227" cy="7.748" r="6.998" style="fill:#fff;stroke:#000;stroke-width:1.5px;"/><rect x="34.561" y="99.251" width="25.74" height="13.694" style="fill:#fff;fill-opacity:0;"/><clipPath id="_clip2"><rect x="34.561" y="99.251" width="25.74" height="13.694"/></clipPath><g clip-path="url(#_clip2)"><circle cx="58.117" cy="81.363" r="28.765" style="fill:#fff;stroke:#000;stroke-width:2px;"/></g></g></svg>