<?xml version="1.0" encoding="UTF-8" standalone="no"?>
<!DOCTYPE svg PUBLIC "-//W3C//DTD SVG 1.1//EN" "http://www.w3.org/Graphics/SVG/1.1/DTD/svg11.dtd">
<svg width="100%" height="100%" viewBox="0 0 1442 382" version="1.1" xmlns="http://www.w3.org/2000/svg" xmlns:xlink="http://www.w3.org/1999/xlink" xml:space="preserve" xmlns:serif="http://www.serif.com/" style="fill-rule:evenodd;clip-rule:evenodd;stroke-linecap:round;stroke-linejoin:round;stroke-miterlimit:1.5;">
    <g transform="matrix(1,0,0,1,-301.797,-2239.14)">
        <g>
            <g transform="matrix(0.494472,0,0,0.494472,225.866,1580.06)">
                <g transform="matrix(600,0,0,600,947.497,1943.95)">
                    <path d="M0.759,-0.658C0.75,-0.658 0.736,-0.655 0.717,-0.65C0.698,-0.646 0.684,-0.64 0.676,-0.635C0.665,-0.627 0.657,-0.611 0.653,-0.588C0.649,-0.565 0.646,-0.536 0.646,-0.5L0.646,0.007L0.604,0.007L0.184,-0.56L0.184,-0.203C0.184,-0.163 0.187,-0.132 0.192,-0.11C0.197,-0.089 0.204,-0.074 0.215,-0.064C0.222,-0.057 0.238,-0.051 0.261,-0.044C0.285,-0.038 0.3,-0.035 0.308,-0.035L0.308,-0L0.023,-0L0.023,-0.035C0.032,-0.035 0.047,-0.038 0.068,-0.044C0.089,-0.05 0.102,-0.055 0.107,-0.06C0.118,-0.069 0.126,-0.083 0.13,-0.101C0.135,-0.12 0.137,-0.152 0.137,-0.197L0.137,-0.539C0.137,-0.554 0.134,-0.569 0.129,-0.583C0.124,-0.598 0.117,-0.61 0.108,-0.618C0.096,-0.629 0.08,-0.638 0.06,-0.646C0.04,-0.653 0.024,-0.658 0.012,-0.658L0.012,-0.693L0.209,-0.693L0.599,-0.165L0.599,-0.494C0.599,-0.535 0.597,-0.566 0.591,-0.587C0.586,-0.609 0.579,-0.623 0.569,-0.63C0.56,-0.637 0.545,-0.643 0.524,-0.648C0.503,-0.654 0.488,-0.658 0.477,-0.658L0.477,-0.693L0.759,-0.693L0.759,-0.658Z" style="fill-rule:nonzero;"/>
                </g>
                <g transform="matrix(600,0,0,600,1407.75,1943.95)">
                    <path d="M0.551,-0.009L0.395,0.002L0.387,-0.005L0.387,-0.066L0.384,-0.066C0.376,-0.058 0.368,-0.049 0.358,-0.04C0.348,-0.031 0.337,-0.022 0.324,-0.015C0.31,-0.006 0.295,0.001 0.282,0.005C0.268,0.01 0.249,0.012 0.224,0.012C0.181,0.012 0.149,-0.002 0.126,-0.03C0.104,-0.057 0.093,-0.098 0.093,-0.151L0.093,-0.381C0.093,-0.393 0.091,-0.403 0.086,-0.411C0.082,-0.419 0.075,-0.426 0.067,-0.432C0.061,-0.436 0.054,-0.438 0.045,-0.44C0.036,-0.442 0.027,-0.443 0.017,-0.444L0.017,-0.476L0.178,-0.487L0.185,-0.48L0.185,-0.146C0.185,-0.111 0.193,-0.085 0.208,-0.067C0.224,-0.05 0.243,-0.041 0.265,-0.041C0.283,-0.041 0.299,-0.044 0.313,-0.049C0.326,-0.055 0.338,-0.061 0.348,-0.069C0.356,-0.076 0.364,-0.083 0.371,-0.091C0.378,-0.098 0.383,-0.105 0.386,-0.112L0.386,-0.385C0.386,-0.396 0.384,-0.405 0.379,-0.413C0.375,-0.422 0.368,-0.429 0.36,-0.435C0.354,-0.438 0.346,-0.441 0.334,-0.442C0.323,-0.442 0.31,-0.443 0.295,-0.444L0.295,-0.476L0.47,-0.487L0.478,-0.48L0.478,-0.098C0.478,-0.087 0.48,-0.078 0.484,-0.07C0.489,-0.062 0.495,-0.055 0.503,-0.05C0.509,-0.046 0.516,-0.044 0.524,-0.043C0.533,-0.042 0.542,-0.041 0.551,-0.041L0.551,-0.009Z" style="fill-rule:nonzero;"/>
                </g>
                <g transform="matrix(600,0,0,600,1752.87,1943.95)">
                    <path d="M0.258,0.013C0.188,0.013 0.134,-0.01 0.094,-0.057C0.055,-0.103 0.035,-0.165 0.035,-0.243C0.035,-0.277 0.04,-0.308 0.051,-0.338C0.062,-0.367 0.077,-0.394 0.097,-0.418C0.116,-0.441 0.14,-0.46 0.169,-0.474C0.198,-0.488 0.23,-0.495 0.264,-0.495C0.311,-0.495 0.35,-0.484 0.379,-0.461C0.409,-0.439 0.424,-0.408 0.424,-0.369C0.424,-0.352 0.42,-0.338 0.412,-0.325C0.404,-0.313 0.391,-0.307 0.374,-0.307C0.354,-0.307 0.339,-0.312 0.329,-0.321C0.318,-0.331 0.313,-0.342 0.313,-0.354C0.313,-0.369 0.315,-0.384 0.319,-0.399C0.323,-0.415 0.325,-0.426 0.326,-0.433C0.32,-0.443 0.311,-0.45 0.3,-0.453C0.288,-0.457 0.276,-0.458 0.262,-0.458C0.247,-0.458 0.232,-0.455 0.218,-0.448C0.203,-0.442 0.19,-0.43 0.176,-0.412C0.164,-0.395 0.154,-0.373 0.147,-0.346C0.139,-0.318 0.136,-0.285 0.136,-0.247C0.136,-0.186 0.149,-0.137 0.176,-0.098C0.203,-0.06 0.238,-0.041 0.282,-0.041C0.313,-0.041 0.34,-0.049 0.361,-0.064C0.382,-0.079 0.402,-0.102 0.42,-0.133L0.452,-0.112C0.43,-0.074 0.402,-0.043 0.367,-0.021C0.332,0.001 0.295,0.013 0.258,0.013Z" style="fill-rule:nonzero;"/>
                </g>
                <g transform="matrix(600,0,0,600,2025.33,1943.95)">
                    <path d="M0.261,-0L0.026,-0L0.026,-0.032C0.033,-0.033 0.041,-0.034 0.05,-0.034C0.058,-0.035 0.065,-0.036 0.071,-0.038C0.08,-0.041 0.087,-0.046 0.091,-0.053C0.096,-0.061 0.098,-0.07 0.098,-0.082L0.098,-0.64C0.098,-0.651 0.096,-0.662 0.091,-0.673C0.086,-0.683 0.079,-0.691 0.071,-0.697C0.065,-0.701 0.054,-0.704 0.039,-0.708C0.023,-0.711 0.01,-0.713 0.001,-0.713L0.001,-0.745L0.182,-0.756L0.189,-0.749L0.189,-0.088C0.189,-0.076 0.191,-0.067 0.195,-0.06C0.2,-0.052 0.206,-0.047 0.216,-0.043C0.223,-0.04 0.23,-0.037 0.237,-0.036C0.244,-0.034 0.252,-0.033 0.261,-0.032L0.261,-0Z" style="fill-rule:nonzero;"/>
                </g>
                <g transform="matrix(600,0,0,600,2197.01,1943.95)">
                    <path d="M0.463,-0.113C0.443,-0.075 0.416,-0.044 0.382,-0.021C0.348,0.001 0.309,0.013 0.265,0.013C0.226,0.013 0.192,0.006 0.163,-0.008C0.134,-0.021 0.11,-0.04 0.091,-0.063C0.072,-0.087 0.058,-0.114 0.049,-0.146C0.04,-0.177 0.035,-0.21 0.035,-0.245C0.035,-0.276 0.04,-0.307 0.05,-0.337C0.06,-0.367 0.075,-0.394 0.094,-0.418C0.112,-0.441 0.135,-0.46 0.163,-0.474C0.19,-0.488 0.221,-0.495 0.255,-0.495C0.291,-0.495 0.321,-0.49 0.346,-0.479C0.371,-0.467 0.391,-0.452 0.407,-0.433C0.422,-0.415 0.433,-0.393 0.44,-0.369C0.448,-0.344 0.451,-0.317 0.451,-0.288L0.451,-0.256L0.132,-0.256C0.132,-0.224 0.135,-0.196 0.141,-0.17C0.147,-0.144 0.157,-0.122 0.17,-0.102C0.183,-0.083 0.199,-0.068 0.22,-0.057C0.24,-0.046 0.265,-0.041 0.293,-0.041C0.322,-0.041 0.347,-0.048 0.368,-0.061C0.389,-0.075 0.409,-0.099 0.429,-0.134L0.463,-0.113ZM0.355,-0.297C0.355,-0.315 0.353,-0.335 0.35,-0.355C0.347,-0.376 0.342,-0.394 0.335,-0.408C0.328,-0.423 0.318,-0.435 0.305,-0.444C0.292,-0.454 0.275,-0.458 0.254,-0.458C0.22,-0.458 0.192,-0.444 0.169,-0.416C0.147,-0.387 0.134,-0.348 0.132,-0.297L0.355,-0.297Z" style="fill-rule:nonzero;"/>
                </g>
                <g transform="matrix(600,0,0,600,2487.05,1943.95)">
                    <path d="M0.551,-0.009L0.395,0.002L0.387,-0.005L0.387,-0.066L0.384,-0.066C0.376,-0.058 0.368,-0.049 0.358,-0.04C0.348,-0.031 0.337,-0.022 0.324,-0.015C0.31,-0.006 0.295,0.001 0.282,0.005C0.268,0.01 0.249,0.012 0.224,0.012C0.181,0.012 0.149,-0.002 0.126,-0.03C0.104,-0.057 0.093,-0.098 0.093,-0.151L0.093,-0.381C0.093,-0.393 0.091,-0.403 0.086,-0.411C0.082,-0.419 0.075,-0.426 0.067,-0.432C0.061,-0.436 0.054,-0.438 0.045,-0.44C0.036,-0.442 0.027,-0.443 0.017,-0.444L0.017,-0.476L0.178,-0.487L0.185,-0.48L0.185,-0.146C0.185,-0.111 0.193,-0.085 0.208,-0.067C0.224,-0.05 0.243,-0.041 0.265,-0.041C0.283,-0.041 0.299,-0.044 0.313,-0.049C0.326,-0.055 0.338,-0.061 0.348,-0.069C0.356,-0.076 0.364,-0.083 0.371,-0.091C0.378,-0.098 0.383,-0.105 0.386,-0.112L0.386,-0.385C0.386,-0.396 0.384,-0.405 0.379,-0.413C0.375,-0.422 0.368,-0.429 0.36,-0.435C0.354,-0.438 0.346,-0.441 0.334,-0.442C0.323,-0.442 0.31,-0.443 0.295,-0.444L0.295,-0.476L0.47,-0.487L0.478,-0.48L0.478,-0.098C0.478,-0.087 0.48,-0.078 0.484,-0.07C0.489,-0.062 0.495,-0.055 0.503,-0.05C0.509,-0.046 0.516,-0.044 0.524,-0.043C0.533,-0.042 0.542,-0.041 0.551,-0.041L0.551,-0.009Z" style="fill-rule:nonzero;"/>
                </g>
                <g transform="matrix(600,0,0,600,2832.17,1943.95)">
                    <path d="M0.353,-0.236C0.366,-0.224 0.377,-0.211 0.384,-0.195C0.391,-0.18 0.395,-0.161 0.395,-0.139C0.395,-0.095 0.378,-0.058 0.344,-0.03C0.311,-0.001 0.268,0.013 0.215,0.013C0.187,0.013 0.161,0.008 0.137,-0.002C0.114,-0.013 0.097,-0.022 0.087,-0.03L0.077,0.001L0.041,0.001L0.036,-0.166L0.069,-0.166C0.072,-0.153 0.077,-0.139 0.086,-0.122C0.094,-0.105 0.105,-0.089 0.117,-0.076C0.129,-0.061 0.145,-0.049 0.162,-0.04C0.18,-0.03 0.2,-0.025 0.222,-0.025C0.253,-0.025 0.278,-0.032 0.294,-0.046C0.311,-0.06 0.32,-0.081 0.32,-0.107C0.32,-0.121 0.317,-0.132 0.312,-0.142C0.306,-0.152 0.299,-0.161 0.288,-0.168C0.277,-0.176 0.264,-0.183 0.249,-0.189C0.233,-0.195 0.215,-0.201 0.196,-0.207C0.181,-0.211 0.164,-0.217 0.145,-0.225C0.127,-0.233 0.111,-0.243 0.097,-0.253C0.083,-0.265 0.071,-0.279 0.062,-0.295C0.053,-0.312 0.048,-0.332 0.048,-0.354C0.048,-0.393 0.063,-0.427 0.092,-0.454C0.122,-0.481 0.161,-0.495 0.21,-0.495C0.229,-0.495 0.248,-0.493 0.268,-0.488C0.288,-0.483 0.304,-0.477 0.316,-0.47L0.327,-0.496L0.362,-0.496L0.37,-0.341L0.336,-0.341C0.329,-0.375 0.314,-0.403 0.292,-0.425C0.269,-0.447 0.242,-0.458 0.209,-0.458C0.182,-0.458 0.161,-0.451 0.146,-0.438C0.131,-0.424 0.123,-0.408 0.123,-0.389C0.123,-0.375 0.126,-0.362 0.131,-0.353C0.136,-0.343 0.143,-0.334 0.153,-0.328C0.163,-0.321 0.175,-0.315 0.19,-0.309C0.205,-0.304 0.223,-0.297 0.245,-0.29C0.267,-0.283 0.287,-0.275 0.306,-0.266C0.325,-0.257 0.341,-0.247 0.353,-0.236Z" style="fill-rule:nonzero;"/>
                </g>
            </g>
            <g transform="matrix(0.808489,0,0,0.808489,-124.245,1533.1)">
                <g transform="matrix(1.10896,0,0,1.10896,-309.306,-1050.52)">
                    <circle cx="925.682" cy="1900.68" r="108.078" style="stroke:white;stroke-width:9.29px;"/>
                </g>
                <g transform="matrix(1.10896,0,0,1.10896,-168.871,-1018.36)">
                    <circle cx="925.682" cy="1900.68" r="108.078" style="stroke:white;stroke-width:9.29px;"/>
                </g>
                <g transform="matrix(1.10896,0,0,1.10896,-256.437,-894.738)">
                    <circle cx="925.682" cy="1900.68" r="108.078" style="stroke:white;stroke-width:9.29px;"/>
                </g>
                <g transform="matrix(1.10896,0,0,1.10896,-374.572,-948.26)">
                    <circle cx="925.682" cy="1900.68" r="108.078" style="stroke:white;stroke-width:9.29px;"/>
                </g>
                <g transform="matrix(1,0,0,1,-207.662,-223.546)">
                    <path d="M928.345,1546.53C874.492,1573.76 809.345,1534.72 797.705,1470.26C789.226,1423.3 797.439,1361.08 821.139,1305.61C858.439,1218.31 927.82,1148.06 989.072,1132.71C1032.85,1121.74 1088.32,1134.75 1098.81,1196.81" style="fill:none;stroke:rgb(124,124,124);stroke-width:15.46px;"/>
                </g>
                <g transform="matrix(0.122596,0.145814,-0.246504,0.207254,1059.66,556.183)">
                    <rect x="1009.88" y="1156.23" width="238.568" height="158.682" style="fill-opacity:0;"/>
                    <clipPath id="_clip1">
                        <rect x="1009.88" y="1156.23" width="238.568" height="158.682"/>
                    </clipPath>
                    <g clip-path="url(#_clip1)">
                        <g transform="matrix(3.74617,-2.63562,4.45561,2.21596,-10476.4,-226.509)">
                            <circle cx="925.682" cy="1900.68" r="108.078" style="stroke:white;stroke-width:9.29px;"/>
                        </g>
                    </g>
                </g>
                <g transform="matrix(1,0,0,1,-207.662,-223.546)">
                    <rect x="879.615" y="1511.11" width="107.251" height="57.059" style="fill-opacity:0;"/>
                    <clipPath id="_clip2">
                        <rect x="879.615" y="1511.11" width="107.251" height="57.059"/>
                    </clipPath>
                    <g clip-path="url(#_clip2)">
                        <g transform="matrix(1.10896,0,0,1.10896,-48.7748,-671.192)">
                            <circle cx="925.682" cy="1900.68" r="108.078" style="stroke:white;stroke-width:9.29px;"/>
                        </g>
                    </g>
                </g>
                <g transform="matrix(0.269775,0,0,0.269775,554.169,393.548)">
                    <circle cx="925.682" cy="1900.68" r="108.078" style="stroke:white;stroke-width:28.66px;"/>
                </g>
            </g>
        </g>
    </g>
</svg>
