<?xml version="1.0" encoding="UTF-8" standalone="no"?>
<!DOCTYPE svg PUBLIC "-//W3C//DTD SVG 1.1//EN" "http://www.w3.org/Graphics/SVG/1.1/DTD/svg11.dtd">
<svg width="24px" height="24px" viewBox="0 0 13 12" version="1.1" xmlns="http://www.w3.org/2000/svg" xmlns:xlink="http://www.w3.org/1999/xlink" xml:space="preserve" xmlns:serif="http://www.serif.com/" style="fill-rule:evenodd;clip-rule:evenodd;stroke-linejoin:round;stroke-miterlimit:2;">
    <path d="M7.832,7.832C7.972,7.691 8.163,7.612 8.362,7.612C8.561,7.612 8.752,7.691 8.893,7.831L11.78,10.719C11.921,10.86 12,11.051 12,11.25C12,11.661 11.662,12 11.25,12C11.051,12 10.86,11.921 10.72,11.78L7.832,8.893C7.691,8.752 7.612,8.561 7.612,8.362C7.612,8.163 7.691,7.972 7.832,7.832L7.832,7.832Z" style="fill:white;"/>
    <path d="M4.875,9C7.138,9 9,7.138 9,4.875C9,2.612 7.138,0.75 4.875,0.75C2.612,0.75 0.75,2.612 0.75,4.875C0.75,7.138 2.612,9 4.875,9ZM9.75,4.875C9.75,7.549 7.549,9.75 4.875,9.75C2.201,9.75 0,7.549 0,4.875C0,2.201 2.201,0 4.875,0C7.549,0 9.75,2.201 9.75,4.875Z" style="fill:white;"/>
    <path d="M4.875,9C7.138,9 9,7.138 9,4.875C9,2.612 7.138,0.75 4.875,0.75C2.612,0.75 0.75,2.612 0.75,4.875C0.75,7.138 2.612,9 4.875,9ZM9.75,4.875C9.75,7.549 7.549,9.75 4.875,9.75C2.201,9.75 0,7.549 0,4.875C0,2.201 2.201,0 4.875,0C7.549,0 9.75,2.201 9.75,4.875Z" style="fill:white;"/>
</svg>
